HIERARCHY
ROOT Hips
{
	OFFSET 305.588898 92.559578 -272.186401
	CHANNELS 6 Xposition Yposition Zposition Zrotation Yrotation Xrotation 
	JOINT LeftUpLeg
	{
		OFFSET 0.103462 1.857825 10.548491
		CHANNELS 3 Xrotation Yrotation Zrotation
		JOINT LeftLeg
		{
			OFFSET 43.500000 -0.000038 -0.000006
			CHANNELS 3 Xrotation Yrotation Zrotation
			JOINT LeftFoot
			{
				OFFSET 42.372196 0.000034 -0.000012
				CHANNELS 3 Xrotation Yrotation Zrotation
				JOINT LeftToe
				{
					OFFSET 17.299999 -0.000001 -0.000008
					CHANNELS 3 Xrotation Yrotation Zrotation
					End Site
					{
						OFFSET 0.000000 0.000000 0.000000
					}
				}
			}
		}
	}
	JOINT RightUpLeg
	{
		OFFSET 0.103456 1.857821 -10.548490
		CHANNELS 3 Xrotation Yrotation Zrotation
		JOINT RightLeg
		{
			OFFSET 43.500038 -0.000011 0.000011
			CHANNELS 3 Xrotation Yrotation Zrotation
			JOINT RightFoot
			{
				OFFSET 42.372265 0.000004 0.000029
				CHANNELS 3 Xrotation Yrotation Zrotation
				JOINT RightToe
				{
					OFFSET 17.299988 -0.000007 0.000004
					CHANNELS 3 Xrotation Yrotation Zrotation
					End Site
					{
						OFFSET 0.000000 0.000000 0.000000
					}
				}
			}
		}
	}
	JOINT Spine
	{
		OFFSET 6.901963 -2.603729 -0.000012
		CHANNELS 3 Xrotation Yrotation Zrotation
		JOINT Spine1
		{
			OFFSET 12.588106 0.000010 0.000003
			CHANNELS 3 Xrotation Yrotation Zrotation
			JOINT Spine2
			{
				OFFSET 12.343199 -0.000001 -0.000002
				CHANNELS 3 Xrotation Yrotation Zrotation
				JOINT Neck
				{
					OFFSET 25.832895 -0.000006 0.000023
					CHANNELS 3 Xrotation Yrotation Zrotation
					JOINT Head
					{
						OFFSET 11.766605 0.000011 -0.000027
						CHANNELS 3 Xrotation Yrotation Zrotation
						End Site
						{
							OFFSET 0.000000 0.000000 0.000000
						}
					}
				}
				JOINT LeftShoulder
				{
					OFFSET 19.745903 -1.480368 6.000127
					CHANNELS 3 Xrotation Yrotation Zrotation
					JOINT LeftArm
					{
						OFFSET 11.284108 0.000010 -0.000010
						CHANNELS 3 Xrotation Yrotation Zrotation
						JOINT LeftForeArm
						{
							OFFSET 33.000069 0.000000 0.000030
							CHANNELS 3 Xrotation Yrotation Zrotation
							JOINT LeftHand
							{
								OFFSET 25.199997 0.000019 0.000001
								CHANNELS 3 Xrotation Yrotation Zrotation
								End Site
								{
									OFFSET 0.000000 0.000000 0.000000
								}
							}
						}
					}
				}
				JOINT RightShoulder
				{
					OFFSET 19.746101 -1.480371 -6.000072
					CHANNELS 3 Xrotation Yrotation Zrotation
					JOINT RightArm
					{
						OFFSET 11.284140 -0.000007 -0.000004
						CHANNELS 3 Xrotation Yrotation Zrotation
						JOINT RightForeArm
						{
							OFFSET 33.000080 0.000016 -0.000002
							CHANNELS 3 Xrotation Yrotation Zrotation
							JOINT RightHand
							{
								OFFSET 25.199766 0.000146 0.000422
								CHANNELS 3 Xrotation Yrotation Zrotation
								End Site
								{
									OFFSET 0.000000 0.000000 0.000000
								}
							}
						}
					}
				}
			}
		}
	}
}
MOTION
Frames: 12
Frame Time: 0.033333
-114.033997 89.359962 -4.505949 89.128382 5.472324 -105.567991 -179.788665 0.024995 173.010030 -39.917456 0.888924 -2.807598 74.036450 1.041572 -3.292078 21.454562 0.003110 0.000019 144.440865 -4.237098 -176.294518 -17.430160 0.700723 2.765865 77.978528 0.271146 8.829456 21.454551 -0.003087 0.000001 9.579952 0.220591 -2.913642 9.130291 0.670386 -5.800777 8.813958 0.635263 -5.804706 14.282943 11.354206 7.876519 -13.245654 -13.345070 13.179483 176.184279 -79.887498 2.355007 -11.137875 53.112121 10.822827 -106.881409 0.514668 3.064455 -10.772770 0.124873 19.235643 -152.034383 78.101000 30.011315 33.784001 -54.083658 -38.948737 -89.741295 3.458599 -2.535599 4.237991 -0.256842 -34.542305 
-112.576500 88.413597 -10.853410 88.743371 4.605488 -106.327037 -179.907210 0.585600 175.089741 -48.192507 1.353632 -1.505595 71.693156 -0.602661 -5.182484 21.454562 0.003106 0.000017 145.274545 -4.130093 -173.316118 -18.678307 0.301479 3.990017 78.205222 -0.792364 8.156323 21.454553 -0.003088 0.000002 9.299993 0.262159 -2.653145 8.570750 0.719990 -5.279616 8.254108 0.688004 -5.283851 14.683612 11.093924 7.371179 -12.246520 -14.037708 12.687689 176.750583 -79.111704 1.797216 -7.290749 53.358698 16.119282 -106.397996 0.488883 3.044967 -10.589010 -0.357067 19.035502 -147.755720 79.333412 34.324395 37.295968 -51.758354 -42.204118 -90.133574 3.295867 -2.541612 6.456504 -2.407906 -32.758899 
-111.005600 86.866737 -16.954729 89.985727 3.066609 -106.848016 179.344717 -0.158098 176.834964 -58.950447 1.706356 0.665937 70.810128 -1.806120 -3.784516 21.454563 0.003111 0.000018 146.309591 -4.756499 -170.210951 -24.780811 -0.096366 4.784642 71.508242 -2.465352 3.162513 21.454553 -0.003082 0.000002 9.395200 0.550685 -2.179932 8.754299 1.264629 -4.312161 8.437099 1.238447 -4.319699 14.434637 10.949761 6.559306 -12.715178 -14.363818 12.030641 176.683975 -79.492098 1.856408 -4.933868 55.288052 19.448141 -105.031507 0.166661 3.007043 -10.115310 -0.598558 20.493578 -145.816001 79.339894 36.293720 37.962707 -49.240999 -42.391108 -90.696491 3.081891 -2.551614 7.223341 -4.744723 -31.359519 
-109.290703 84.768303 -23.150890 91.646399 1.094434 -108.259031 178.403844 -1.220302 177.302067 -70.700156 2.366950 0.942485 72.243765 -2.464902 -5.177919 21.454562 0.003107 0.000020 146.263146 -5.370897 -168.937926 -35.790321 0.963894 4.685632 70.844915 -6.259071 -8.677456 21.454551 -0.003089 -0.000000 9.659134 0.832741 -1.600015 9.282073 1.791113 -3.128395 8.964339 1.772063 -3.139146 13.815784 10.683623 6.041542 -13.692621 -14.461088 11.708354 176.666490 -79.309602 1.878218 -2.029852 57.319043 21.483225 -102.674115 -0.288124 2.934106 -9.559172 -0.381851 21.842159 -150.807558 79.152200 31.229602 35.882187 -47.657010 -40.092507 -90.022105 3.163983 -2.527454 8.838709 -6.944821 -31.241104 
-107.352501 82.792473 -29.321980 93.948992 -1.659445 -109.215941 177.162075 -2.374297 177.626815 -82.290625 3.115904 -1.139223 72.847526 -0.076337 -2.403408 21.454565 0.003106 0.000015 148.129441 -4.734808 -166.927487 -47.602098 1.973118 3.251410 79.408742 -4.442215 -8.399814 21.454551 -0.003099 -0.000001 10.193498 1.284044 -1.245689 10.349246 2.674375 -2.372057 10.031072 2.659861 -2.388165 14.109917 9.670482 6.025642 -15.462577 -14.253990 11.809156 177.710922 -77.628727 0.851593 -0.083201 58.798865 21.844933 -97.286319 -1.348602 2.767382 -9.190352 -0.814907 23.288469 -157.306811 79.103624 24.624794 28.887472 -48.490156 -35.352745 -85.358506 4.904322 -2.443431 10.196564 -8.868546 -32.912878 
-105.309502 81.322090 -35.231312 95.459776 -3.560304 -109.151976 173.746270 -3.217414 178.970723 -92.029286 4.047581 -4.267478 73.522711 1.728454 -3.695673 21.454562 0.003100 0.000022 151.383097 -4.540099 -163.840556 -54.833056 0.463536 2.088240 86.646366 -2.988482 -8.229925 21.454555 -0.003093 0.000001 10.399868 1.549624 -1.173996 10.760289 3.201703 -2.199447 10.441918 3.188233 -2.218762 14.300756 9.959977 6.131619 -15.769715 -14.365488 12.004889 179.243165 -76.234508 -0.684187 2.029210 60.138122 23.230827 -88.697936 -3.703143 2.547768 -7.823260 -3.988716 25.097370 -163.588099 77.595136 18.250933 17.138753 -49.272421 -30.770993 -78.754574 8.587110 -2.413652 13.985222 -6.772317 -39.269128 
-103.307800 80.750343 -40.792561 96.569053 -4.400939 -109.253056 168.129286 -3.909900 179.799566 -98.891174 4.646605 -7.353680 74.976448 4.380784 -2.215906 21.454557 0.003105 0.000020 155.422498 -5.670307 -165.112583 -57.598896 0.881037 2.755166 91.571609 -2.890567 -7.051624 21.454555 -0.003091 0.000001 10.266036 1.806426 -0.994896 10.495188 3.695624 -1.822588 10.176554 3.684396 -1.844893 15.144423 9.331772 6.047415 -16.419749 -13.933922 11.766193 -178.622096 -75.787922 -2.857501 2.114004 62.651980 27.810106 -76.326012 -10.655043 2.491380 -7.506652 -7.538288 25.968890 -168.181483 75.607284 13.571189 5.921158 -49.879505 -25.898324 -73.195599 11.744739 -2.397900 13.077841 -1.723617 -63.492120 
-101.533798 81.144493 -46.212502 96.570774 -5.049831 -109.904055 161.878243 -3.706894 179.823786 -100.913907 4.861126 -9.291806 74.547396 5.658317 -2.556304 21.454557 0.003111 0.000018 160.459271 -6.379512 -167.964105 -57.067460 1.522977 3.442741 94.640249 -2.992230 -5.670616 21.454553 -0.003100 0.000000 10.062320 1.793733 -0.738905 10.095875 3.645053 -1.319021 9.777175 3.636897 -1.341042 14.094604 8.328185 5.571878 -15.681783 -13.324155 10.971367 -176.903211 -74.850015 -4.602790 4.035385 63.499647 31.824375 -64.325656 -15.017361 2.298637 -6.878035 -10.474346 29.761999 -169.766196 74.264695 11.949219 -4.478502 -51.231244 -21.597574 -69.973697 13.671321 -2.398284 12.494271 -0.010422 -93.840761 
-99.862877 82.114304 -51.552479 96.548556 -5.711790 -110.979980 156.408846 -3.915493 179.026785 -98.608937 4.814065 -9.506362 73.815432 5.639665 -3.187917 21.454563 0.003109 0.000019 166.601086 -7.280892 -171.594146 -53.922619 1.978438 4.280407 96.094273 -3.316900 -4.156564 21.454551 -0.003088 0.000001 9.909504 1.685523 -0.418197 9.800181 3.400405 -0.692360 9.481499 3.396023 -0.712917 13.074730 7.749575 5.178981 -15.968082 -13.571293 10.720175 -174.038589 -73.689497 -7.526110 8.103658 62.323215 35.516618 -55.317132 -16.257956 2.045247 -8.002846 -9.975040 34.404465 -171.741623 74.043902 9.923782 -13.201945 -52.698601 -18.583370 -68.754699 14.453123 -2.402683 15.116298 -1.356219 -103.977991 
-98.277611 83.788391 -56.944839 95.483558 -5.954116 -112.159049 151.993183 -3.414500 177.833264 -91.422096 4.113592 -9.001190 73.190463 5.399741 -2.945474 21.454563 0.003100 0.000021 173.059932 -6.915193 -174.658292 -48.362753 1.764105 4.603791 95.453751 -3.417294 -2.857409 21.454551 -0.003099 0.000002 9.596984 1.361347 -0.092350 9.182798 2.725746 -0.076387 8.864304 2.725086 -0.092864 11.591564 6.448955 4.667140 -15.585904 -12.472365 9.739175 -171.196479 -72.944890 -10.438729 13.782216 59.790315 40.914380 -50.736308 -16.123923 1.879344 -8.287273 -10.002597 34.101294 -173.567907 75.357429 8.061004 -19.459250 -55.212766 -15.189620 -69.721041 13.754626 -2.393714 14.208913 -2.077585 -96.774765 
-96.748848 85.575500 -62.351730 94.306778 -5.520619 -113.353027 148.974185 -3.217202 176.090077 -80.295601 3.464838 -7.705547 72.685009 4.582811 -2.729507 21.454557 0.003103 0.000016 178.939782 -5.889101 -176.643677 -41.896145 1.544358 4.439828 92.147113 -3.326812 -2.204410 21.454551 -0.003095 0.000001 9.112946 0.991831 0.289473 8.219797 1.960656 0.648664 7.901525 1.964415 0.636800 10.746037 5.733027 4.121138 -15.941481 -11.410492 8.821694 -167.780906 -72.872709 -13.946405 20.155287 56.255692 47.740775 -49.597149 -15.680410 1.812603 -8.646803 -10.097930 31.607042 -177.048803 76.265715 4.511702 -22.362828 -56.582342 -14.718209 -72.484761 12.500803 -2.420774 8.779054 -0.207112 -84.233745 
-95.189796 87.076157 -67.761063 92.813699 -4.665695 -114.703000 147.738563 -3.292101 174.810277 -65.664448 1.599151 -5.900064 72.873201 3.263875 -3.067058 21.454560 0.003106 0.000019 -176.128463 -4.194598 -177.672563 -35.744357 1.309554 3.731119 87.547377 -2.930653 -1.963650 21.454555 -0.003099 -0.000001 8.554968 0.586177 0.746299 7.104964 1.125607 1.527151 6.786904 1.134663 1.520316 8.963951 5.077977 3.634048 -15.372374 -10.562905 7.966245 -162.413279 -72.865496 -19.458704 24.565586 52.413909 52.835690 -51.044821 -15.382892 1.840101 -8.443208 -9.274153 32.338938 -177.981821 77.271590 3.572886 -23.586364 -57.389770 -15.893251 -76.273754 10.754479 -2.458691 3.955154 2.016163 -67.165382 
